<svg xmlns="http://www.w3.org/2000/svg" width="516" height="512" viewBox="0 0 516 512" version="1.1"><path d="M 213.617 109.250 C 212.245 110.487, 204.873 120.500, 197.235 131.500 C 189.596 142.500, 176.280 161.599, 167.644 173.943 C 159.007 186.286, 151.683 197.415, 151.367 198.673 C 151.024 200.040, 151.561 202.277, 152.702 204.230 L 154.610 207.500 191.393 208 L 228.175 208.500 230.588 211.306 C 234.786 216.189, 234.967 215.805, 215.308 243.650 C 207.164 255.185, 198.250 267.873, 195.500 271.845 C 182.356 290.828, 177.178 297.599, 174.937 298.735 C 173.110 299.661, 161.098 299.974, 126.973 299.985 C 87.547 299.998, 81.149 300.207, 79.239 301.545 C 77.387 302.842, 73.304 308.382, 58.006 330.354 C 55.471 333.993, 23.854 379.207, 20.245 384.353 C 15.559 391.033, 15.008 395.099, 18.336 398.427 L 20.909 401 64.763 401 C 98.329 401, 108.992 400.707, 110.215 399.750 C 111.598 398.667, 122.620 383.428, 132.502 368.936 C 134.214 366.426, 136.747 362.826, 138.131 360.936 C 139.516 359.046, 144.856 351.425, 149.997 344 C 168.881 316.729, 175.330 307.882, 177.364 306.457 C 179.098 305.243, 185.760 305, 217.288 305 C 254.833 305, 258.139 305.262, 260.235 308.400 C 261.935 310.946, 260.888 315.962, 257.680 320.650 C 249.637 332.399, 235.762 352.305, 229.205 361.500 C 215.343 380.940, 209 391.001, 209 393.548 C 209 394.947, 210.105 397.195, 211.455 398.545 L 213.909 401 258.002 401 L 302.095 401 304.343 398.575 C 305.579 397.242, 309.631 391.729, 313.348 386.325 C 317.066 380.921, 322.813 372.675, 326.119 368 C 329.426 363.325, 334.323 356.350, 337 352.500 C 339.677 348.650, 344.581 341.675, 347.896 337 C 367.229 309.740, 368.126 307.849, 364.090 302.861 L 362.179 300.500 325.693 300 C 291.611 299.533, 289.068 299.374, 287.103 297.595 C 282.701 293.608, 283.905 290.799, 299.850 267.862 C 333.652 219.237, 339.270 211.463, 341.823 209.779 C 344.284 208.156, 348.228 208.013, 390.639 208.007 C 433.132 208.001, 436.940 207.862, 438.819 206.250 C 439.941 205.287, 450.399 190.775, 462.058 174 C 473.718 157.225, 485.823 139.900, 488.957 135.500 C 499.983 120.022, 501 118.260, 501 114.642 C 501 112.055, 500.314 110.606, 498.365 109.073 C 495.792 107.049, 494.717 107, 452.799 107 C 426.433 107, 409.156 107.381, 408.022 107.988 C 406.243 108.940, 400.041 117.575, 359.984 174.860 C 348.452 191.352, 340.607 201.645, 339.026 202.356 C 337.287 203.139, 324.925 203.494, 299.323 203.496 C 263.080 203.500, 262.075 203.447, 259.323 201.394 C 253.440 197.005, 254.111 195.312, 271.626 170.361 C 306.388 120.842, 308 118.373, 308 114.657 C 308 112.054, 307.318 110.609, 305.365 109.073 C 302.792 107.048, 301.722 107, 259.421 107 L 216.112 107 213.617 109.250" stroke="none" fill="#aff70a" fill-rule="evenodd"/><path d="M 0 256.002 L 0 512.004 258.250 511.752 L 516.500 511.500 516.752 255.750 L 517.004 0 258.502 0 L 0 0 0 256.002 M 0.492 256.500 C 0.492 397.300, 0.608 454.751, 0.750 384.170 C 0.892 313.588, 0.892 198.388, 0.750 128.170 C 0.608 57.951, 0.492 115.700, 0.492 256.500 M 213.617 109.250 C 212.245 110.487, 204.873 120.500, 197.235 131.500 C 189.596 142.500, 176.280 161.599, 167.644 173.943 C 159.007 186.286, 151.683 197.415, 151.367 198.673 C 151.024 200.040, 151.561 202.277, 152.702 204.230 L 154.610 207.500 191.393 208 L 228.175 208.500 230.588 211.306 C 234.786 216.189, 234.967 215.805, 215.308 243.650 C 207.164 255.185, 198.250 267.873, 195.500 271.845 C 182.356 290.828, 177.178 297.599, 174.937 298.735 C 173.110 299.661, 161.098 299.974, 126.973 299.985 C 87.547 299.998, 81.149 300.207, 79.239 301.545 C 77.387 302.842, 73.304 308.382, 58.006 330.354 C 55.471 333.993, 23.854 379.207, 20.245 384.353 C 15.559 391.033, 15.008 395.099, 18.336 398.427 L 20.909 401 64.763 401 C 98.329 401, 108.992 400.707, 110.215 399.750 C 111.598 398.667, 122.620 383.428, 132.502 368.936 C 134.214 366.426, 136.747 362.826, 138.131 360.936 C 139.516 359.046, 144.856 351.425, 149.997 344 C 168.881 316.729, 175.330 307.882, 177.364 306.457 C 179.098 305.243, 185.760 305, 217.288 305 C 254.833 305, 258.139 305.262, 260.235 308.400 C 261.935 310.946, 260.888 315.962, 257.680 320.650 C 249.637 332.399, 235.762 352.305, 229.205 361.500 C 215.343 380.940, 209 391.001, 209 393.548 C 209 394.947, 210.105 397.195, 211.455 398.545 L 213.909 401 258.002 401 L 302.095 401 304.343 398.575 C 305.579 397.242, 309.631 391.729, 313.348 386.325 C 317.066 380.921, 322.813 372.675, 326.119 368 C 329.426 363.325, 334.323 356.350, 337 352.500 C 339.677 348.650, 344.581 341.675, 347.896 337 C 367.229 309.740, 368.126 307.849, 364.090 302.861 L 362.179 300.500 325.693 300 C 291.611 299.533, 289.068 299.374, 287.103 297.595 C 282.701 293.608, 283.905 290.799, 299.850 267.862 C 333.652 219.237, 339.270 211.463, 341.823 209.779 C 344.284 208.156, 348.228 208.013, 390.639 208.007 C 433.132 208.001, 436.940 207.862, 438.819 206.250 C 439.941 205.287, 450.399 190.775, 462.058 174 C 473.718 157.225, 485.823 139.900, 488.957 135.500 C 499.983 120.022, 501 118.260, 501 114.642 C 501 112.055, 500.314 110.606, 498.365 109.073 C 495.792 107.049, 494.717 107, 452.799 107 C 426.433 107, 409.156 107.381, 408.022 107.988 C 406.243 108.940, 400.041 117.575, 359.984 174.860 C 348.452 191.352, 340.607 201.645, 339.026 202.356 C 337.287 203.139, 324.925 203.494, 299.323 203.496 C 263.080 203.500, 262.075 203.447, 259.323 201.394 C 253.440 197.005, 254.111 195.312, 271.626 170.361 C 306.388 120.842, 308 118.373, 308 114.657 C 308 112.054, 307.318 110.609, 305.365 109.073 C 302.792 107.048, 301.722 107, 259.421 107 L 216.112 107 213.617 109.250" stroke="none" fill="#242422" fill-rule="evenodd"/></svg>