<?xml version="1.0" standalone="no"?>
<!DOCTYPE svg PUBLIC "-//W3C//DTD SVG 20010904//EN"
 "http://www.w3.org/TR/2001/REC-SVG-20010904/DTD/svg10.dtd">
<svg version="1.0" xmlns="http://www.w3.org/2000/svg"
 width="700.000000pt" height="700.000000pt" viewBox="0 0 700.000000 700.000000"
 preserveAspectRatio="xMidYMid meet">
<metadata>
Created by potrace 1.14, written by Peter Selinger 2001-2017
</metadata>
<g transform="translate(0.000000,700.000000) scale(0.100000,-0.100000)"
fill="#000000" stroke="none">
<path d="M0 3500 l0 -3500 3500 0 3500 0 0 3500 0 3500 -3500 0 -3500 0 0
-3500z m4053 3072 c33 -14 66 -80 67 -133 0 -72 -27 -143 -359 -928 -262 -618
-292 -697 -299 -778 -4 -52 -1 -67 18 -97 44 -73 33 -71 525 -70 305 0 453 4
481 12 40 12 42 14 111 159 39 82 162 362 273 623 271 636 478 1117 502 1163
10 21 31 43 46 49 19 8 186 12 542 12 562 1 561 1 594 -56 24 -40 25 -137 1
-208 -19 -58 -552 -1319 -688 -1628 -52 -118 -88 -187 -101 -195 -15 -8 -176
-14 -571 -18 -560 -7 -616 -11 -647 -46 -29 -34 -124 -247 -428 -968 -228
-541 -273 -656 -290 -747 -17 -87 20 -151 94 -164 22 -3 227 -12 454 -18 l414
-11 24 -28 c13 -15 29 -45 35 -67 24 -79 6 -128 -454 -1205 -161 -379 -304
-709 -316 -733 -38 -74 -24 -72 -596 -72 -574 0 -562 -1 -595 72 -11 24 -20
60 -20 82 0 72 13 105 469 1183 88 210 168 412 177 450 29 123 6 192 -68 215
-63 19 -920 19 -964 0 -44 -19 -57 -47 -489 -1067 -301 -712 -373 -875 -396
-899 -16 -18 -41 -20 -266 -28 -367 -13 -832 -7 -859 11 -59 39 -76 151 -40
255 18 49 585 1389 690 1630 77 175 83 184 131 197 25 7 243 14 590 18 396 5
556 10 572 19 43 24 50 40 428 927 298 700 330 785 322 845 -7 53 -43 110 -81
125 -23 10 -142 15 -437 20 -249 5 -419 12 -440 19 -39 13 -65 57 -75 127 -8
56 19 124 389 999 288 681 380 891 402 923 33 48 28 47 580 44 377 -2 528 -6
548 -15z"/>
</g>
</svg>
