<?xml version="1.0" standalone="no"?>
<!DOCTYPE svg PUBLIC "-//W3C//DTD SVG 20010904//EN"
 "http://www.w3.org/TR/2001/REC-SVG-20010904/DTD/svg10.dtd">
<svg version="1.0" xmlns="http://www.w3.org/2000/svg"
 width="700.000000pt" height="700.000000pt" viewBox="0 0 700.000000 700.000000"
 preserveAspectRatio="xMidYMid meet">
<metadata>
Created by potrace 1.14, written by Peter Selinger 2001-2017
</metadata>
<g transform="translate(0.000000,700.000000) scale(0.100000,-0.100000)"
fill="#000000" stroke="none">
<path d="M2836 5615 c-22 -8 -56 -31 -76 -52 -48 -49 -2717 -3855 -2741 -3908
-35 -76 -18 -158 45 -221 24 -25 58 -46 81 -53 29 -8 615 -11 2076 -11 l2035
0 52 26 c45 22 61 40 130 142 529 782 2530 3777 2543 3807 35 76 18 158 -45
221 -24 25 -58 46 -81 53 -29 8 -597 11 -2010 11 -1662 -1 -1976 -3 -2009 -15z
m1012 -844 c57 -8 72 -21 72 -62 0 -25 -37 -83 -324 -502 -126 -184 -140 -224
-87 -251 26 -14 74 -16 358 -14 l327 3 48 60 c27 33 139 191 250 350 111 160
222 317 247 351 l46 61 125 7 c161 8 495 8 583 -1 57 -5 71 -10 84 -29 12 -19
13 -30 4 -55 -10 -28 -453 -677 -515 -754 l-24 -30 -412 -5 -412 -5 -24 -30
c-71 -88 -421 -601 -453 -663 -21 -40 -21 -45 -7 -67 21 -32 33 -33 362 -39
154 -3 288 -8 297 -12 28 -10 32 -52 10 -98 -30 -61 -479 -707 -513 -738 l-30
-28 -360 0 c-381 0 -405 3 -416 47 -10 37 10 73 170 302 237 343 266 389 266
427 0 58 -7 59 -379 59 l-333 0 -32 -36 c-17 -20 -140 -194 -273 -385 -134
-192 -253 -362 -267 -379 l-24 -29 -350 -4 c-193 -3 -367 -1 -387 2 -47 9 -71
45 -57 84 12 35 482 714 523 757 l29 30 402 3 402 4 31 32 c30 32 442 621 464
664 7 13 10 35 7 48 -13 49 -30 51 -355 57 -267 5 -306 8 -322 23 -11 9 -19
28 -19 41 0 39 509 779 551 800 27 14 623 17 717 4z"/>
</g>
</svg>
